<svg width="60" height="60" viewBox="0 0 60 60" fill="none" xmlns="http://www.w3.org/2000/svg">
<circle cx="30" cy="30" r="30" fill="#F0F4F8"/>
<path fill-rule="evenodd" clip-rule="evenodd" d="M24.9997 30.0002C28.2163 30.0002 30.833 27.3835 30.833 24.1668C30.833 20.9502 28.2163 18.3335 24.9997 18.3335C21.783 18.3335 19.1663 20.9502 19.1663 24.1668C19.1663 27.3835 21.783 30.0002 24.9997 30.0002ZM13.333 38.7502C13.333 34.8668 21.0997 32.9168 24.9997 32.9168C28.8997 32.9168 36.6663 34.8668 36.6663 38.7502V41.6668H13.333V38.7502ZM24.9996 36.2502C22.0162 36.2502 18.6329 37.3668 17.2329 38.3335H32.7662C31.3662 37.3668 27.9829 36.2502 24.9996 36.2502ZM27.4997 24.1668C27.4997 22.7835 26.383 21.6668 24.9997 21.6668C23.6163 21.6668 22.4997 22.7835 22.4997 24.1668C22.4997 25.5502 23.6163 26.6668 24.9997 26.6668C26.383 26.6668 27.4997 25.5502 27.4997 24.1668ZM36.733 33.0169C38.6664 34.4169 39.9997 36.2835 39.9997 38.7502V41.6669H46.6664V38.7502C46.6664 35.3835 40.833 33.4669 36.733 33.0169ZM40.833 24.1668C40.833 27.3835 38.2163 30.0002 34.9997 30.0002C34.0997 30.0002 33.2663 29.7835 32.4997 29.4168C33.5497 27.9335 34.1663 26.1168 34.1663 24.1668C34.1663 22.2168 33.5497 20.4002 32.4997 18.9168C33.2663 18.5502 34.0997 18.3335 34.9997 18.3335C38.2163 18.3335 40.833 20.9502 40.833 24.1668Z" fill="#2884FF"/>
</svg>
